<?xml version="1.0" encoding="UTF-8"?><svg id="_レイヤー_2" xmlns="http://www.w3.org/2000/svg" viewBox="0 0 313 271.67"><path id="_背ビレ" d="M58.5,99.5s-20-25-28-21,0,14,12,41" style="fill:#a0b7ff; stroke:#000; stroke-miterlimit:10;"/><path id="left" d="M234.5,168.5l-3.07,6.95c-.55,2.4-.05,4.92,1.38,6.93,5.68,7.99,19.67,34.68,2.95,77.16-.74,1.88-2.57,3.11-4.59,3.09-20.08-.23-32.68-1.13-32.68-1.13l.67-11.44c.28-4.84-.26-9.69-1.66-14.32-2.06-6.81-6.14-16.69-14.01-26.24" style="fill:#001d59; stroke:#000; stroke-miterlimit:10;"/><polygon points="203 125 285 132 298 140 283 153 205 138 196 126 203 125" style="fill:#006492; stroke-width:0px;"/><path d="M207,132.76s-26.67-9.77-38.52,2.17c-11.85,11.94,35.56,5.43,35.56,5.43" style="fill:#a0cdff; stroke-width:0px;"/><path id="body" d="M173.5,133.5c6-5,18-4,18-4,0,0,35.26,3.62,48.18,4.83,1.12.11,2.22.34,3.31.64,12.3,3.44,44.01,2.32,55.51-2.47,8.21-3.42,4.72-10.12,1.69-14.01-1.37-1.76-3.07-3.21-4.99-4.35l-12.78-7.55c-4.19-2.48-7.2-6.53-8.38-11.25-3.32-13.23-13.36-41.01-40.4-50.45-.72-.25-1.42-.53-2.1-.86-5.78-2.83-36.29-17.13-57.04-13.52s-67.45,13.59-83.16,32.82c-2.87,3.51-5.99,6.8-9.38,9.81-12.64,11.24-22.32,21.85-24.82,24.65-.44.49-.84,1-1.22,1.53-4.15,5.79-28.83,41.25-31.25,68.5-.15,1.66-.04,3.33.27,4.96,2.62,13.48,16.25,82.41,22.56,88.72,5.93,5.93,61.42,1.09,78.21-.52,3.14-.3,6.15-1.42,8.73-3.24,15.92-11.25,75.6-54.05,94.96-77.18,5.85-6.99,14.48-11.06,23.6-11.3,16.77-.45,35.51-.76,42.3-5.27.69-.46,4.67-3.86,5.21-4.49,7.01-8.2,17.46-25.35.57-24.3-1.49.09-2.97.42-4.39.9-19.6,6.65-12.28,11.13-46.67,3.51-.33-.07-.67-.14-1.01-.19l-42.5-6.92" style="fill:#a0cdff; stroke:#000; stroke-linecap:round; stroke-miterlimit:10;"/><path d="M137.5,216.5s-3,44-11,50-27,8-34-5,12-27.97,0-39.49" style="fill:#a0b7ff; stroke:#000; stroke-miterlimit:10;"/><path d="M147,126c-8.96,0-10-5.42-10-9.5,0-6.3,3.36-9.5,10-9.5,7.2,0,11,2.94,11,8.5,0,7.36-3.29,10.5-11,10.5Z" style="fill:#fff; stroke-width:0px;"/><path d="M147,107.5c6.97,0,10.5,2.69,10.5,8,0,7.01-3.14,10-10.5,10-4.42,0-9.5-1.02-9.5-9,0-6.06,3.11-9,9.5-9M147,106.5c-7.5,0-10.5,4-10.5,10,0,4,1,10,10.5,10,8.5,0,11.5-3.93,11.5-11,0-5-2.94-9-11.5-9h0Z" style="fill:#000; stroke-width:0px;"/><path d="M140.98,114.24s21.56-5.27,16.15,5.94c-1.22,2.52-3.15,4.21-5.31,4.99-11.28,4.04-18.99-7.79-10.84-10.93Z" style="fill:#000; stroke:#000; stroke-miterlimit:10; stroke-width:.25px;"/><path d="M149.71,119.66c-3.01,3.27-2.63,9.23,4.28,4.47,6.01-4.14-1.28-7.74-4.28-4.47Z" style="fill:#fff; stroke-width:0px;"/><path d="M231,117.81c6.65-10.79,46.5-15.31,46.5-15.31" style="fill:none; stroke:#000; stroke-miterlimit:10;"/></svg>